<svg xmlns="http://www.w3.org/2000/svg" width="1920" height="1080"><path d="M293,-265L404,-252L1013,-261Z" fill="#dcf1ba" stroke="#dcf1ba" stroke-width="1.51"/><path d="M1013,-261L1146,-247L1342,-237Z" fill="#acd9a0" stroke="#acd9a0" stroke-width="1.51"/><path d="M1389,1255L1187,1282L1459,1252Z" fill="#1f7a42" stroke="#1f7a42" stroke-width="1.51"/><path d="M1187,1282L926,1345L1459,1252Z" fill="#2b7f48" stroke="#2b7f48" stroke-width="1.51"/><path d="M1342,-237L1538,-208L1746,-218Z" fill="#96c28b" stroke="#96c28b" stroke-width="1.51"/><path d="M1342,-237L1746,-218L1943,-252Z" fill="#91bb89" stroke="#91bb89" stroke-width="1.51"/><path d="M1013,-261L1342,-237L1943,-252Z" fill="#9cc994" stroke="#9cc994" stroke-width="1.51"/><path d="M1669,1249L1459,1252L1954,1275Z" fill="#0b6737" stroke="#0b6737" stroke-width="1.51"/><path d="M1459,1252L926,1345L1954,1275Z" fill="#19713d" stroke="#19713d" stroke-width="1.51"/><path d="M1807,1250L1669,1249L1954,1275Z" fill="#036234" stroke="#036234" stroke-width="1.51"/><path d="M1976,34L1961,271L2064,263Z" fill="#6d9e64" stroke="#6d9e64" stroke-width="1.51"/><path d="M2044,344L2047,554L2064,263Z" fill="#569159" stroke="#569159" stroke-width="1.51"/><path d="M1984,947L2044,1141L2097,934Z" fill="#0e6737" stroke="#0e6737" stroke-width="1.51"/><path d="M2047,554L1966,686L2107,730Z" fill="#31834b" stroke="#31834b" stroke-width="1.51"/><path d="M2064,263L2047,554L2107,730Z" fill="#448a52" stroke="#448a52" stroke-width="1.51"/><path d="M1976,34L2064,263L2108,36Z" fill="#739e66" stroke="#739e66" stroke-width="1.51"/><path d="M2064,263L2107,730L2108,36Z" fill="#5a925a" stroke="#5a925a" stroke-width="1.51"/><path d="M2058,-232L1940,-51L2123,-28Z" fill="#82a472" stroke="#82a472" stroke-width="1.51"/><path d="M2107,730L2109,826L2123,-28Z" fill="#448752" stroke="#448752" stroke-width="1.51"/><path d="M2108,36L2107,730L2123,-28Z" fill="#64945e" stroke="#64945e" stroke-width="1.51"/><path d="M1954,1275L926,1345L2125,1292Z" fill="#0c6436" stroke="#0c6436" stroke-width="1.51"/><path d="M2044,1141L1954,1275L2125,1292Z" fill="#005730" stroke="#005730" stroke-width="1.51"/><path d="M2097,934L2044,1141L2125,1292Z" fill="#035d32" stroke="#035d32" stroke-width="1.51"/><path d="M2109,826L2097,934L2125,1292Z" fill="#0d6235" stroke="#0d6235" stroke-width="1.51"/><path d="M2123,-28L2109,826L2125,1292Z" fill="#2a7c47" stroke="#2a7c47" stroke-width="1.51"/><path d="M1976,34L2108,36L2123,-28Z" fill="#7aa06a" stroke="#7aa06a" stroke-width="1.51"/><path d="M1940,-51L1976,34L2123,-28Z" fill="#7ea46d" stroke="#7ea46d" stroke-width="1.51"/><path d="M2044,344L1883,440L2047,554Z" fill="#4f9258" stroke="#4f9258" stroke-width="1.51"/><path d="M1966,686L1947,829L2107,730Z" fill="#238046" stroke="#238046" stroke-width="1.51"/><path d="M1984,947L2097,934L2109,826Z" fill="#176e3b" stroke="#176e3b" stroke-width="1.51"/><path d="M1947,829L1984,947L2109,826Z" fill="#1a743f" stroke="#1a743f" stroke-width="1.51"/><path d="M2107,730L1947,829L2109,826Z" fill="#1f7842" stroke="#1f7842" stroke-width="1.51"/><path d="M1984,947L1900,1098L2044,1141Z" fill="#096737" stroke="#096737" stroke-width="1.51"/><path d="M1883,440L1921,567L2047,554Z" fill="#469156" stroke="#469156" stroke-width="1.51"/><path d="M1921,567L1966,686L2047,554Z" fill="#3a8a4f" stroke="#3a8a4f" stroke-width="1.51"/><path d="M1943,-252L1940,-51L2058,-232Z" fill="#85a97b" stroke="#85a97b" stroke-width="1.51"/><path d="M1961,271L2044,344L2064,263Z" fill="#62985e" stroke="#62985e" stroke-width="1.51"/><path d="M1538,-208L1674,-203L1746,-218Z" fill="#91bc87" stroke="#91bc87" stroke-width="1.51"/><path d="M1807,189L1961,271L1976,34Z" fill="#72a567" stroke="#72a567" stroke-width="1.51"/><path d="M1961,271L1883,440L2044,344Z" fill="#5d995d" stroke="#5d995d" stroke-width="1.51"/><path d="M1900,1098L1954,1275L2044,1141Z" fill="#006034" stroke="#006034" stroke-width="1.51"/><path d="M779,1319L302,1344L926,1345Z" fill="#5a905a" stroke="#5a905a" stroke-width="1.51"/><path d="M1746,-218L1940,-51L1943,-252Z" fill="#88b07e" stroke="#88b07e" stroke-width="1.51"/><path d="M1900,1098L1807,1250L1954,1275Z" fill="#006235" stroke="#006235" stroke-width="1.51"/><path d="M1822,654L1947,829L1966,686Z" fill="#29874a" stroke="#29874a" stroke-width="1.51"/><path d="M1773,96L1807,189L1976,34Z" fill="#7aab6b" stroke="#7aab6b" stroke-width="1.51"/><path d="M1805,983L1900,1098L1984,947Z" fill="#0f703a" stroke="#0f703a" stroke-width="1.51"/><path d="M1947,829L1817,876L1984,947Z" fill="#19793f" stroke="#19793f" stroke-width="1.51"/><path d="M1817,876L1805,983L1984,947Z" fill="#16773e" stroke="#16773e" stroke-width="1.51"/><path d="M1921,567L1822,654L1966,686Z" fill="#378d50" stroke="#378d50" stroke-width="1.51"/><path d="M1940,-51L1773,96L1976,34Z" fill="#7eab6f" stroke="#7eab6f" stroke-width="1.51"/><path d="M1744,345L1883,440L1961,271Z" fill="#5fa060" stroke="#5fa060" stroke-width="1.51"/><path d="M1796,1135L1807,1250L1900,1098Z" fill="#016937" stroke="#016937" stroke-width="1.51"/><path d="M1822,654L1817,876L1947,829Z" fill="#228547" stroke="#228547" stroke-width="1.51"/><path d="M1807,189L1744,345L1961,271Z" fill="#69a565" stroke="#69a565" stroke-width="1.51"/><path d="M1731,-12L1773,96L1940,-51Z" fill="#82b071" stroke="#82b071" stroke-width="1.51"/><path d="M1746,-218L1731,-12L1940,-51Z" fill="#89b377" stroke="#89b377" stroke-width="1.51"/><path d="M1883,440L1742,505L1921,567Z" fill="#4a9859" stroke="#4a9859" stroke-width="1.51"/><path d="M1742,505L1822,654L1921,567Z" fill="#419555" stroke="#419555" stroke-width="1.51"/><path d="M1805,983L1796,1135L1900,1098Z" fill="#0b6f3a" stroke="#0b6f3a" stroke-width="1.51"/><path d="M1657,688L1657,840L1817,876Z" fill="#288b49" stroke="#288b49" stroke-width="1.51"/><path d="M1657,688L1817,876L1822,654Z" fill="#2a8e4c" stroke="#2a8e4c" stroke-width="1.51"/><path d="M1744,345L1742,505L1883,440Z" fill="#579f5e" stroke="#579f5e" stroke-width="1.51"/><path d="M1688,433L1742,505L1744,345Z" fill="#59a25f" stroke="#59a25f" stroke-width="1.51"/><path d="M1674,-203L1731,-12L1746,-218Z" fill="#8eb87f" stroke="#8eb87f" stroke-width="1.51"/><path d="M1658,1026L1796,1135L1805,983Z" fill="#12743c" stroke="#12743c" stroke-width="1.51"/><path d="M1663,285L1744,345L1807,189Z" fill="#6caa66" stroke="#6caa66" stroke-width="1.51"/><path d="M1796,1135L1674,1188L1807,1250Z" fill="#076938" stroke="#076938" stroke-width="1.51"/><path d="M1657,840L1805,983L1817,876Z" fill="#1e7f42" stroke="#1e7f42" stroke-width="1.51"/><path d="M1742,505L1657,688L1822,654Z" fill="#3f9755" stroke="#3f9755" stroke-width="1.51"/><path d="M1657,840L1658,1026L1805,983Z" fill="#1c7d40" stroke="#1c7d40" stroke-width="1.51"/><path d="M1620,564L1657,688L1742,505Z" fill="#469c58" stroke="#469c58" stroke-width="1.51"/><path d="M1773,96L1663,285L1807,189Z" fill="#75ad6a" stroke="#75ad6a" stroke-width="1.51"/><path d="M1674,1188L1669,1249L1807,1250Z" fill="#096837" stroke="#096837" stroke-width="1.51"/><path d="M1586,110L1663,285L1773,96Z" fill="#7bb26d" stroke="#7bb26d" stroke-width="1.51"/><path d="M1658,1026L1674,1188L1796,1135Z" fill="#0f723b" stroke="#0f723b" stroke-width="1.51"/><path d="M1674,-203L1606,-39L1731,-12Z" fill="#8eba7a" stroke="#8eba7a" stroke-width="1.51"/><path d="M1731,-12L1586,110L1773,96Z" fill="#83b472" stroke="#83b472" stroke-width="1.51"/><path d="M1606,-39L1586,110L1731,-12Z" fill="#88b875" stroke="#88b875" stroke-width="1.51"/><path d="M1663,285L1688,433L1744,345Z" fill="#64a863" stroke="#64a863" stroke-width="1.51"/><path d="M1688,433L1620,564L1742,505Z" fill="#51a05d" stroke="#51a05d" stroke-width="1.51"/><path d="M1657,840L1512,1000L1658,1026Z" fill="#218142" stroke="#218142" stroke-width="1.51"/><path d="M1586,110L1491,184L1663,285Z" fill="#7bb56d" stroke="#7bb56d" stroke-width="1.51"/><path d="M1658,1026L1535,1178L1674,1188Z" fill="#13753c" stroke="#13753c" stroke-width="1.51"/><path d="M1538,-208L1606,-39L1674,-203Z" fill="#92be82" stroke="#92be82" stroke-width="1.51"/><path d="M1478,502L1620,564L1688,433Z" fill="#55a55f" stroke="#55a55f" stroke-width="1.51"/><path d="M1663,285L1429,414L1688,433Z" fill="#65ac65" stroke="#65ac65" stroke-width="1.51"/><path d="M1429,414L1478,502L1688,433Z" fill="#5eac63" stroke="#5eac63" stroke-width="1.51"/><path d="M1538,-208L1519,-65L1606,-39Z" fill="#93c07e" stroke="#93c07e" stroke-width="1.51"/><path d="M1446,639L1447,893L1657,840Z" fill="#32964f" stroke="#32964f" stroke-width="1.51"/><path d="M1446,639L1657,840L1657,688Z" fill="#359751" stroke="#359751" stroke-width="1.51"/><path d="M1512,1000L1535,1178L1658,1026Z" fill="#1a7b3f" stroke="#1a7b3f" stroke-width="1.51"/><path d="M1535,1178L1459,1252L1669,1249Z" fill="#14703a" stroke="#14703a" stroke-width="1.51"/><path d="M1535,1178L1669,1249L1674,1188Z" fill="#106f3a" stroke="#106f3a" stroke-width="1.51"/><path d="M1447,893L1512,1000L1657,840Z" fill="#278946" stroke="#278946" stroke-width="1.51"/><path d="M1620,564L1446,639L1657,688Z" fill="#439e57" stroke="#439e57" stroke-width="1.51"/><path d="M1491,184L1429,414L1663,285Z" fill="#72b46b" stroke="#72b46b" stroke-width="1.51"/><path d="M1446,639L1372,790L1447,893Z" fill="#379e54" stroke="#379e54" stroke-width="1.51"/><path d="M1519,-65L1586,110L1606,-39Z" fill="#8cbc77" stroke="#8cbc77" stroke-width="1.51"/><path d="M1478,502L1446,639L1620,564Z" fill="#4fa65e" stroke="#4fa65e" stroke-width="1.51"/><path d="M1519,-65L1463,137L1586,110Z" fill="#8abe76" stroke="#8abe76" stroke-width="1.51"/><path d="M1369,362L1429,414L1491,184Z" fill="#74b96e" stroke="#74b96e" stroke-width="1.51"/><path d="M1463,137L1491,184L1586,110Z" fill="#84bc73" stroke="#84bc73" stroke-width="1.51"/><path d="M1328,-6L1463,137L1519,-65Z" fill="#91c57d" stroke="#91c57d" stroke-width="1.51"/><path d="M1512,1000L1354,1173L1535,1178Z" fill="#1d7f42" stroke="#1d7f42" stroke-width="1.51"/><path d="M1342,-237L1519,-65L1538,-208Z" fill="#99c68a" stroke="#99c68a" stroke-width="1.51"/><path d="M1304,1031L1354,1173L1512,1000Z" fill="#248747" stroke="#248747" stroke-width="1.51"/><path d="M1354,1173L1459,1252L1535,1178Z" fill="#1a7940" stroke="#1a7940" stroke-width="1.51"/><path d="M1300,237L1369,362L1491,184Z" fill="#7dbf73" stroke="#7dbf73" stroke-width="1.51"/><path d="M1342,-237L1328,-6L1519,-65Z" fill="#9bca86" stroke="#9bca86" stroke-width="1.51"/><path d="M1447,893L1304,1031L1512,1000Z" fill="#298b48" stroke="#298b48" stroke-width="1.51"/><path d="M1335,678L1372,790L1446,639Z" fill="#42a65a" stroke="#42a65a" stroke-width="1.51"/><path d="M1354,1173L1389,1255L1459,1252Z" fill="#1c7941" stroke="#1c7941" stroke-width="1.51"/><path d="M1309,531L1446,639L1478,502Z" fill="#55ad63" stroke="#55ad63" stroke-width="1.51"/><path d="M1463,137L1300,237L1491,184Z" fill="#84c075" stroke="#84c075" stroke-width="1.51"/><path d="M404,-252L729,-196L1013,-261Z" fill="#d1ecb2" stroke="#d1ecb2" stroke-width="1.51"/><path d="M1328,-6L1289,93L1463,137Z" fill="#91c87d" stroke="#91c87d" stroke-width="1.51"/><path d="M1429,414L1309,531L1478,502Z" fill="#5fb267" stroke="#5fb267" stroke-width="1.51"/><path d="M1289,93L1300,237L1463,137Z" fill="#8ac67a" stroke="#8ac67a" stroke-width="1.51"/><path d="M1235,-79L1328,-6L1342,-237Z" fill="#a0d18b" stroke="#a0d18b" stroke-width="1.51"/><path d="M1309,531L1335,678L1446,639Z" fill="#4fac61" stroke="#4fac61" stroke-width="1.51"/><path d="M1372,790L1214,881L1447,893Z" fill="#359b52" stroke="#359b52" stroke-width="1.51"/><path d="M1214,881L1304,1031L1447,893Z" fill="#31954e" stroke="#31954e" stroke-width="1.51"/><path d="M1369,362L1309,531L1429,414Z" fill="#67b76b" stroke="#67b76b" stroke-width="1.51"/><path d="M1174,413L1309,531L1369,362Z" fill="#6cbd6f" stroke="#6cbd6f" stroke-width="1.51"/><path d="M1354,1173L1187,1282L1389,1255Z" fill="#217e45" stroke="#217e45" stroke-width="1.51"/><path d="M1335,678L1214,881L1372,790Z" fill="#3ca458" stroke="#3ca458" stroke-width="1.51"/><path d="M1300,237L1162,295L1369,362Z" fill="#7ec576" stroke="#7ec576" stroke-width="1.51"/><path d="M1162,295L1174,413L1369,362Z" fill="#79c475" stroke="#79c475" stroke-width="1.51"/><path d="M1141,646L1214,881L1335,678Z" fill="#46ad5f" stroke="#46ad5f" stroke-width="1.51"/><path d="M1309,531L1201,594L1335,678Z" fill="#55b366" stroke="#55b366" stroke-width="1.51"/><path d="M1304,1031L1156,1148L1354,1173Z" fill="#278b4a" stroke="#278b4a" stroke-width="1.51"/><path d="M1156,1148L1187,1282L1354,1173Z" fill="#288649" stroke="#288649" stroke-width="1.51"/><path d="M1005,1289L926,1345L1187,1282Z" fill="#3a854e" stroke="#3a854e" stroke-width="1.51"/><path d="M1146,-247L1235,-79L1342,-237Z" fill="#a5d696" stroke="#a5d696" stroke-width="1.51"/><path d="M1201,594L1141,646L1335,678Z" fill="#54b365" stroke="#54b365" stroke-width="1.51"/><path d="M1235,-79L1289,93L1328,-6Z" fill="#9ad084" stroke="#9ad084" stroke-width="1.51"/><path d="M1235,-79L1160,87L1289,93Z" fill="#9cd286" stroke="#9cd286" stroke-width="1.51"/><path d="M1289,93L1160,87L1300,237Z" fill="#92ce7f" stroke="#92ce7f" stroke-width="1.51"/><path d="M1160,87L1162,295L1300,237Z" fill="#8dcd7e" stroke="#8dcd7e" stroke-width="1.51"/><path d="M1214,881L1145,968L1304,1031Z" fill="#369952" stroke="#369952" stroke-width="1.51"/><path d="M1174,413L1201,594L1309,531Z" fill="#65bb6e" stroke="#65bb6e" stroke-width="1.51"/><path d="M1145,968L1156,1148L1304,1031Z" fill="#33934f" stroke="#33934f" stroke-width="1.51"/><path d="M404,-252L580,-199L729,-196Z" fill="#dcf1b5" stroke="#dcf1b5" stroke-width="1.51"/><path d="M1174,413L1013,513L1201,594Z" fill="#6ec072" stroke="#6ec072" stroke-width="1.51"/><path d="M1141,646L1046,806L1214,881Z" fill="#4cad61" stroke="#4cad61" stroke-width="1.51"/><path d="M1085,-4L1160,87L1235,-79Z" fill="#a3d68a" stroke="#a3d68a" stroke-width="1.51"/><path d="M1146,-247L1085,-4L1235,-79Z" fill="#aad892" stroke="#aad892" stroke-width="1.51"/><path d="M1160,87L1000,275L1162,295Z" fill="#94d182" stroke="#94d182" stroke-width="1.51"/><path d="M1046,806L1145,968L1214,881Z" fill="#44a35a" stroke="#44a35a" stroke-width="1.51"/><path d="M1013,-261L1085,-4L1146,-247Z" fill="#b1dc9d" stroke="#b1dc9d" stroke-width="1.51"/><path d="M1145,968L1028,1113L1156,1148Z" fill="#3b9553" stroke="#3b9553" stroke-width="1.51"/><path d="M1013,513L1141,646L1201,594Z" fill="#65bc6e" stroke="#65bc6e" stroke-width="1.51"/><path d="M1010,708L1046,806L1141,646Z" fill="#58b568" stroke="#58b568" stroke-width="1.51"/><path d="M1023,59L1000,275L1160,87Z" fill="#a0d688" stroke="#a0d688" stroke-width="1.51"/><path d="M1162,295L1022,334L1174,413Z" fill="#85ca7b" stroke="#85ca7b" stroke-width="1.51"/><path d="M1156,1148L1005,1289L1187,1282Z" fill="#34884d" stroke="#34884d" stroke-width="1.51"/><path d="M1028,1113L1005,1289L1156,1148Z" fill="#3a8f51" stroke="#3a8f51" stroke-width="1.51"/><path d="M1022,334L1013,513L1174,413Z" fill="#7fc87a" stroke="#7fc87a" stroke-width="1.51"/><path d="M1013,-261L918,-63L1085,-4Z" fill="#b6df9a" stroke="#b6df9a" stroke-width="1.51"/><path d="M984,1012L1028,1113L1145,968Z" fill="#439b56" stroke="#439b56" stroke-width="1.51"/><path d="M1085,-4L1023,59L1160,87Z" fill="#a6d88c" stroke="#a6d88c" stroke-width="1.51"/><path d="M1000,275L1022,334L1162,295Z" fill="#8fcf80" stroke="#8fcf80" stroke-width="1.51"/><path d="M1046,806L984,1012L1145,968Z" fill="#49a25b" stroke="#49a25b" stroke-width="1.51"/><path d="M1013,513L1010,708L1141,646Z" fill="#66bc6f" stroke="#66bc6f" stroke-width="1.51"/><path d="M888,-169L918,-63L1013,-261Z" fill="#bde3a2" stroke="#bde3a2" stroke-width="1.51"/><path d="M922,428L1013,513L1022,334Z" fill="#85cc7e" stroke="#85cc7e" stroke-width="1.51"/><path d="M920,938L984,1012L1046,806Z" fill="#50a75f" stroke="#50a75f" stroke-width="1.51"/><path d="M918,-63L1023,59L1085,-4Z" fill="#b0dd92" stroke="#b0dd92" stroke-width="1.51"/><path d="M876,47L933,293L1000,275Z" fill="#a3d98b" stroke="#a3d98b" stroke-width="1.51"/><path d="M832,653L1010,708L1013,513Z" fill="#6fc173" stroke="#6fc173" stroke-width="1.51"/><path d="M876,47L1000,275L1023,59Z" fill="#a9db8d" stroke="#a9db8d" stroke-width="1.51"/><path d="M830,1095L1005,1289L1028,1113Z" fill="#459557" stroke="#459557" stroke-width="1.51"/><path d="M1010,708L839,891L1046,806Z" fill="#5ab367" stroke="#5ab367" stroke-width="1.51"/><path d="M839,891L920,938L1046,806Z" fill="#58ad63" stroke="#58ad63" stroke-width="1.51"/><path d="M729,-196L888,-169L1013,-261Z" fill="#c2e5a9" stroke="#c2e5a9" stroke-width="1.51"/><path d="M847,484L832,653L1013,513Z" fill="#7dc87a" stroke="#7dc87a" stroke-width="1.51"/><path d="M918,-63L876,47L1023,59Z" fill="#b4e094" stroke="#b4e094" stroke-width="1.51"/><path d="M984,1012L830,1095L1028,1113Z" fill="#4a9c5a" stroke="#4a9c5a" stroke-width="1.51"/><path d="M876,47L782,120L933,293Z" fill="#b0de90" stroke="#b0de90" stroke-width="1.51"/><path d="M830,1095L926,1345L1005,1289Z" fill="#468f55" stroke="#468f55" stroke-width="1.51"/><path d="M832,653L839,891L1010,708Z" fill="#64ba6d" stroke="#64ba6d" stroke-width="1.51"/><path d="M1000,275L933,293L1022,334Z" fill="#95d284" stroke="#95d284" stroke-width="1.51"/><path d="M933,293L922,428L1022,334Z" fill="#91d182" stroke="#91d182" stroke-width="1.51"/><path d="M922,428L847,484L1013,513Z" fill="#84cb7d" stroke="#84cb7d" stroke-width="1.51"/><path d="M830,1095L779,1319L926,1345Z" fill="#4d9157" stroke="#4d9157" stroke-width="1.51"/><path d="M920,938L830,1095L984,1012Z" fill="#51a25d" stroke="#51a25d" stroke-width="1.51"/><path d="M832,653L706,725L839,891Z" fill="#6ebe70" stroke="#6ebe70" stroke-width="1.51"/><path d="M767,553L832,653L847,484Z" fill="#82ca7c" stroke="#82ca7c" stroke-width="1.51"/><path d="M839,891L830,1095L920,938Z" fill="#59a660" stroke="#59a660" stroke-width="1.51"/><path d="M699,373L847,484L922,428Z" fill="#93d283" stroke="#93d283" stroke-width="1.51"/><path d="M782,120L691,255L933,293Z" fill="#addd8e" stroke="#addd8e" stroke-width="1.51"/><path d="M699,373L922,428L933,293Z" fill="#99d486" stroke="#99d486" stroke-width="1.51"/><path d="M691,255L699,373L933,293Z" fill="#a6da8b" stroke="#a6da8b" stroke-width="1.51"/><path d="M622,1250L302,1344L779,1319Z" fill="#63965e" stroke="#63965e" stroke-width="1.51"/><path d="M888,-169L764,-112L918,-63Z" fill="#c3e6a0" stroke="#c3e6a0" stroke-width="1.51"/><path d="M706,725L714,847L839,891Z" fill="#6db96d" stroke="#6db96d" stroke-width="1.51"/><path d="M764,-112L876,47L918,-63Z" fill="#c0e49a" stroke="#c0e49a" stroke-width="1.51"/><path d="M691,1170L779,1319L830,1095Z" fill="#579a5c" stroke="#579a5c" stroke-width="1.51"/><path d="M694,1000L830,1095L839,891Z" fill="#5ea862" stroke="#5ea862" stroke-width="1.51"/><path d="M729,-196L764,-112L888,-169Z" fill="#c9e8a7" stroke="#c9e8a7" stroke-width="1.51"/><path d="M764,-112L782,120L876,47Z" fill="#bfe499" stroke="#bfe499" stroke-width="1.51"/><path d="M764,-112L629,34L782,120Z" fill="#c6e89c" stroke="#c6e89c" stroke-width="1.51"/><path d="M714,847L694,1000L839,891Z" fill="#67b067" stroke="#67b067" stroke-width="1.51"/><path d="M699,373L767,553L847,484Z" fill="#93d283" stroke="#93d283" stroke-width="1.51"/><path d="M767,553L706,725L832,653Z" fill="#7dc778" stroke="#7dc778" stroke-width="1.51"/><path d="M694,1000L691,1170L830,1095Z" fill="#5ea360" stroke="#5ea360" stroke-width="1.51"/><path d="M417,1256L302,1344L622,1250Z" fill="#6c9c63" stroke="#6c9c63" stroke-width="1.51"/><path d="M699,373L620,487L767,553Z" fill="#99d485" stroke="#99d485" stroke-width="1.51"/><path d="M691,1170L622,1250L779,1319Z" fill="#5b975c" stroke="#5b975c" stroke-width="1.51"/><path d="M629,34L691,255L782,120Z" fill="#bfe596" stroke="#bfe596" stroke-width="1.51"/><path d="M635,885L694,1000L714,847Z" fill="#6db36a" stroke="#6db36a" stroke-width="1.51"/><path d="M620,487L706,725L767,553Z" fill="#8acd7e" stroke="#8acd7e" stroke-width="1.51"/><path d="M613,1133L691,1170L694,1000Z" fill="#64a562" stroke="#64a562" stroke-width="1.51"/><path d="M541,-64L629,34L764,-112Z" fill="#d1eca2" stroke="#d1eca2" stroke-width="1.51"/><path d="M620,487L612,743L706,725Z" fill="#87cb7c" stroke="#87cb7c" stroke-width="1.51"/><path d="M729,-196L580,-199L764,-112Z" fill="#d2ecac" stroke="#d2ecac" stroke-width="1.51"/><path d="M580,-199L541,-64L764,-112Z" fill="#d6eea9" stroke="#d6eea9" stroke-width="1.51"/><path d="M629,34L573,261L691,255Z" fill="#bfe596" stroke="#bfe596" stroke-width="1.51"/><path d="M706,725L612,743L714,847Z" fill="#77c173" stroke="#77c173" stroke-width="1.51"/><path d="M691,255L573,261L699,373Z" fill="#b2df90" stroke="#b2df90" stroke-width="1.51"/><path d="M612,743L635,885L714,847Z" fill="#76bc70" stroke="#76bc70" stroke-width="1.51"/><path d="M443,578L612,743L620,487Z" fill="#93d182" stroke="#93d182" stroke-width="1.51"/><path d="M549,1025L613,1133L694,1000Z" fill="#6aaa66" stroke="#6aaa66" stroke-width="1.51"/><path d="M566,443L620,487L699,373Z" fill="#a3d98a" stroke="#a3d98a" stroke-width="1.51"/><path d="M635,885L549,1025L694,1000Z" fill="#6eb068" stroke="#6eb068" stroke-width="1.51"/><path d="M573,261L566,443L699,373Z" fill="#aedd8e" stroke="#aedd8e" stroke-width="1.51"/><path d="M613,1133L622,1250L691,1170Z" fill="#629f60" stroke="#629f60" stroke-width="1.51"/><path d="M391,62L400,221L573,261Z" fill="#cdeb9c" stroke="#cdeb9c" stroke-width="1.51"/><path d="M391,62L573,261L629,34Z" fill="#cdeb9d" stroke="#cdeb9d" stroke-width="1.51"/><path d="M445,943L549,1025L635,885Z" fill="#75b36b" stroke="#75b36b" stroke-width="1.51"/><path d="M452,844L445,943L635,885Z" fill="#7cbb70" stroke="#7cbb70" stroke-width="1.51"/><path d="M612,743L452,844L635,885Z" fill="#7dbf73" stroke="#7dbf73" stroke-width="1.51"/><path d="M443,578L389,706L612,743Z" fill="#91ce80" stroke="#91ce80" stroke-width="1.51"/><path d="M566,443L443,578L620,487Z" fill="#a1d789" stroke="#a1d789" stroke-width="1.51"/><path d="M613,1133L449,1119L622,1250Z" fill="#69a363" stroke="#69a363" stroke-width="1.51"/><path d="M449,1119L417,1256L622,1250Z" fill="#6ca164" stroke="#6ca164" stroke-width="1.51"/><path d="M541,-64L412,-9L629,34Z" fill="#d7efa4" stroke="#d7efa4" stroke-width="1.51"/><path d="M412,-9L391,62L629,34Z" fill="#d8f0a4" stroke="#d8f0a4" stroke-width="1.51"/><path d="M427,406L566,443L573,261Z" fill="#b3e091" stroke="#b3e091" stroke-width="1.51"/><path d="M549,1025L449,1119L613,1133Z" fill="#6eaa67" stroke="#6eaa67" stroke-width="1.51"/><path d="M389,706L452,844L612,743Z" fill="#87c87a" stroke="#87c87a" stroke-width="1.51"/><path d="M400,221L427,406L573,261Z" fill="#bfe596" stroke="#bfe596" stroke-width="1.51"/><path d="M404,-252L541,-64L580,-199Z" fill="#dff2b3" stroke="#dff2b3" stroke-width="1.51"/><path d="M427,406L443,578L566,443Z" fill="#a9db8d" stroke="#a9db8d" stroke-width="1.51"/><path d="M-56,-231L133,-216L293,-265Z" fill="#f7fcc8" stroke="#f7fcc8" stroke-width="1.51"/><path d="M404,-252L412,-9L541,-64Z" fill="#e2f3ad" stroke="#e2f3ad" stroke-width="1.51"/><path d="M445,943L449,1119L549,1025Z" fill="#76af6b" stroke="#76af6b" stroke-width="1.51"/><path d="M391,62L319,128L400,221Z" fill="#d8efa2" stroke="#d8efa2" stroke-width="1.51"/><path d="M293,-265L325,-34L404,-252Z" fill="#ebf8b9" stroke="#ebf8b9" stroke-width="1.51"/><path d="M404,-252L325,-34L412,-9Z" fill="#e7f6af" stroke="#e7f6af" stroke-width="1.51"/><path d="M400,221L318,255L427,406Z" fill="#c6e899" stroke="#c6e899" stroke-width="1.51"/><path d="M297,673L389,706L443,578Z" fill="#9cd386" stroke="#9cd386" stroke-width="1.51"/><path d="M427,406L297,540L443,578Z" fill="#acdc8e" stroke="#acdc8e" stroke-width="1.51"/><path d="M247,852L276,973L445,943Z" fill="#88bd75" stroke="#88bd75" stroke-width="1.51"/><path d="M273,1099L417,1256L449,1119Z" fill="#76aa6a" stroke="#76aa6a" stroke-width="1.51"/><path d="M445,943L276,973L449,1119Z" fill="#7eb46f" stroke="#7eb46f" stroke-width="1.51"/><path d="M276,973L273,1099L449,1119Z" fill="#7fb26e" stroke="#7fb26e" stroke-width="1.51"/><path d="M247,852L445,943L452,844Z" fill="#87c075" stroke="#87c075" stroke-width="1.51"/><path d="M389,706L247,852L452,844Z" fill="#8ec87c" stroke="#8ec87c" stroke-width="1.51"/><path d="M297,540L297,673L443,578Z" fill="#a4d88a" stroke="#a4d88a" stroke-width="1.51"/><path d="M318,255L257,415L427,406Z" fill="#c2e698" stroke="#c2e698" stroke-width="1.51"/><path d="M257,415L297,540L427,406Z" fill="#b6e193" stroke="#b6e193" stroke-width="1.51"/><path d="M273,1099L302,1344L417,1256Z" fill="#76a469" stroke="#76a469" stroke-width="1.51"/><path d="M297,673L247,852L389,706Z" fill="#95cf81" stroke="#95cf81" stroke-width="1.51"/><path d="M325,-34L391,62L412,-9Z" fill="#e1f3a9" stroke="#e1f3a9" stroke-width="1.51"/><path d="M319,128L318,255L400,221Z" fill="#d2ed9f" stroke="#d2ed9f" stroke-width="1.51"/><path d="M325,-34L319,128L391,62Z" fill="#e0f3a7" stroke="#e0f3a7" stroke-width="1.51"/><path d="M297,540L190,667L297,673Z" fill="#a5d88b" stroke="#a5d88b" stroke-width="1.51"/><path d="M190,667L247,852L297,673Z" fill="#9ad184" stroke="#9ad184" stroke-width="1.51"/><path d="M137,1281L36,1316L302,1344Z" fill="#7b9f6b" stroke="#7b9f6b" stroke-width="1.51"/><path d="M273,1099L178,1123L302,1344Z" fill="#7ca96d" stroke="#7ca96d" stroke-width="1.51"/><path d="M178,1123L137,1281L302,1344Z" fill="#7ba46c" stroke="#7ba46c" stroke-width="1.51"/><path d="M92,260L257,415L318,255Z" fill="#cdeb9e" stroke="#cdeb9e" stroke-width="1.51"/><path d="M96,144L92,260L318,255Z" fill="#d9f0a5" stroke="#d9f0a5" stroke-width="1.51"/><path d="M96,144L318,255L319,128Z" fill="#daf1a4" stroke="#daf1a4" stroke-width="1.51"/><path d="M120,-46L96,144L319,128Z" fill="#e6f5ac" stroke="#e6f5ac" stroke-width="1.51"/><path d="M293,-265L133,-216L325,-34Z" fill="#f0f9bc" stroke="#f0f9bc" stroke-width="1.51"/><path d="M133,-216L120,-46L325,-34Z" fill="#f1fab6" stroke="#f1fab6" stroke-width="1.51"/><path d="M120,-46L319,128L325,-34Z" fill="#e6f5ad" stroke="#e6f5ad" stroke-width="1.51"/><path d="M134,1015L273,1099L276,973Z" fill="#85b674" stroke="#85b674" stroke-width="1.51"/><path d="M257,415L143,443L297,540Z" fill="#bae296" stroke="#bae296" stroke-width="1.51"/><path d="M108,549L190,667L297,540Z" fill="#addb90" stroke="#addb90" stroke-width="1.51"/><path d="M143,443L108,549L297,540Z" fill="#b6e096" stroke="#b6e096" stroke-width="1.51"/><path d="M94,889L134,1015L247,852Z" fill="#90c07b" stroke="#90c07b" stroke-width="1.51"/><path d="M92,260L143,443L257,415Z" fill="#c8e99d" stroke="#c8e99d" stroke-width="1.51"/><path d="M134,1015L178,1123L273,1099Z" fill="#85b473" stroke="#85b473" stroke-width="1.51"/><path d="M247,852L134,1015L276,973Z" fill="#8bbd77" stroke="#8bbd77" stroke-width="1.51"/><path d="M190,667L94,889L247,852Z" fill="#97cc82" stroke="#97cc82" stroke-width="1.51"/><path d="M35,648L-11,844L94,889Z" fill="#9ecf88" stroke="#9ecf88" stroke-width="1.51"/><path d="M4,81L96,144L120,-46Z" fill="#edf8b1" stroke="#edf8b1" stroke-width="1.51"/><path d="M92,260L-5,374L143,443Z" fill="#ceeba1" stroke="#ceeba1" stroke-width="1.51"/><path d="M23,1194L137,1281L178,1123Z" fill="#82ab71" stroke="#82ab71" stroke-width="1.51"/><path d="M108,549L35,648L190,667Z" fill="#addb91" stroke="#addb91" stroke-width="1.51"/><path d="M35,648L94,889L190,667Z" fill="#a0d489" stroke="#a0d489" stroke-width="1.51"/><path d="M134,1015L23,1194L178,1123Z" fill="#87b275" stroke="#87b275" stroke-width="1.51"/><path d="M-44,-59L120,-46L133,-216Z" fill="#f7fcbc" stroke="#f7fcbc" stroke-width="1.51"/><path d="M-56,-231L-44,-59L133,-216Z" fill="#fafdc6" stroke="#fafdc6" stroke-width="1.51"/><path d="M94,889L-38,980L134,1015Z" fill="#92bf7b" stroke="#92bf7b" stroke-width="1.51"/><path d="M-38,980L23,1194L134,1015Z" fill="#8db77a" stroke="#8db77a" stroke-width="1.51"/><path d="M23,1194L36,1316L137,1281Z" fill="#82a671" stroke="#82a671" stroke-width="1.51"/><path d="M-18,518L108,549L143,443Z" fill="#bde39a" stroke="#bde39a" stroke-width="1.51"/><path d="M-5,374L-18,518L143,443Z" fill="#c5e79f" stroke="#c5e79f" stroke-width="1.51"/><path d="M-2,237L92,260L96,144Z" fill="#dff2a9" stroke="#dff2a9" stroke-width="1.51"/><path d="M-44,-59L4,81L120,-46Z" fill="#f3fab7" stroke="#f3fab7" stroke-width="1.51"/><path d="M-18,518L35,648L108,549Z" fill="#b6df98" stroke="#b6df98" stroke-width="1.51"/><path d="M-2,237L-5,374L92,260Z" fill="#d7efa8" stroke="#d7efa8" stroke-width="1.51"/><path d="M-11,844L-38,980L94,889Z" fill="#96c482" stroke="#96c482" stroke-width="1.51"/><path d="M4,81L-2,237L96,144Z" fill="#e6f5ae" stroke="#e6f5ae" stroke-width="1.51"/><path d="M-38,980L-146,1111L23,1194Z" fill="#8cb67f" stroke="#8cb67f" stroke-width="1.51"/><path d="M-187,637L-11,844L35,648Z" fill="#a7d795" stroke="#a7d795" stroke-width="1.51"/><path d="M-18,518L-187,637L35,648Z" fill="#b3de9d" stroke="#b3de9d" stroke-width="1.51"/><path d="M23,1194L-118,1259L36,1316Z" fill="#83a776" stroke="#83a776" stroke-width="1.51"/><path d="M-187,637L-221,818L-11,844Z" fill="#a3d396" stroke="#a3d396" stroke-width="1.51"/><path d="M-130,486L-18,518L-5,374Z" fill="#c4e6a5" stroke="#c4e6a5" stroke-width="1.51"/><path d="M-137,249L-5,374L-2,237Z" fill="#d9efae" stroke="#d9efae" stroke-width="1.51"/><path d="M-137,249L-2,237L4,81Z" fill="#e3f4b2" stroke="#e3f4b2" stroke-width="1.51"/><path d="M-146,1111L-118,1259L23,1194Z" fill="#87ae7d" stroke="#87ae7d" stroke-width="1.51"/><path d="M-56,-231L-133,-73L-44,-59Z" fill="#fafdc8" stroke="#fafdc8" stroke-width="1.51"/><path d="M-130,486L-187,637L-18,518Z" fill="#bae2a4" stroke="#bae2a4" stroke-width="1.51"/><path d="M-44,-59L-187,62L4,81Z" fill="#f1fabd" stroke="#f1fabd" stroke-width="1.51"/><path d="M-187,62L-137,249L4,81Z" fill="#eaf7ba" stroke="#eaf7ba" stroke-width="1.51"/><path d="M-214,940L-38,980L-11,844Z" fill="#97c388" stroke="#97c388" stroke-width="1.51"/><path d="M-137,249L-195,359L-5,374Z" fill="#d5eeb0" stroke="#d5eeb0" stroke-width="1.51"/><path d="M-195,359L-130,486L-5,374Z" fill="#cceaac" stroke="#cceaac" stroke-width="1.51"/><path d="M-133,-73L-187,62L-44,-59Z" fill="#f6fcc4" stroke="#f6fcc4" stroke-width="1.51"/><path d="M-221,818L-214,940L-11,844Z" fill="#9cc991" stroke="#9cc991" stroke-width="1.51"/><path d="M-181,-205L-133,-73L-56,-231Z" fill="#fcfdd0" stroke="#fcfdd0" stroke-width="1.51"/><path d="M-214,940L-146,1111L-38,980Z" fill="#91bc87" stroke="#91bc87" stroke-width="1.51"/><path d="M-146,1111L-214,940L-118,1259Z" fill="#8cb586" stroke="#8cb586" stroke-width="1.51"/><path d="M-195,359L-187,637L-130,486Z" fill="#c1e5ac" stroke="#c1e5ac" stroke-width="1.51"/><path d="M-187,62L-195,359L-137,249Z" fill="#e1f3ba" stroke="#e1f3ba" stroke-width="1.51"/><path d="M-181,-205L-187,62L-133,-73Z" fill="#fafdc9" stroke="#fafdc9" stroke-width="1.51"/><path d="M-221,818L-187,62L-181,-205Z" fill="#e1f3bc" stroke="#e1f3bc" stroke-width="1.51"/><path d="M-221,818L-195,359L-187,62Z" fill="#cceab2" stroke="#cceab2" stroke-width="1.51"/><path d="M-195,359L-221,818L-187,637Z" fill="#b5dfa6" stroke="#b5dfa6" stroke-width="1.51"/></svg>